<svg xmlns="http://www.w3.org/2000/svg" version="1.1" xmlns:xlink="http://www.w3.org/1999/xlink" xmlns:svgjs="http://svgjs.dev/svgjs" width="2000" height="722" viewBox="0 0 2000 722"><g transform="matrix(1,0,0,1,-1.2121212121212466,0.9409875596949178)"><svg viewBox="0 0 396 143" data-background-color="#ffffff" preserveAspectRatio="xMidYMid meet" height="722" width="2000" xmlns="http://www.w3.org/2000/svg" xmlns:xlink="http://www.w3.org/1999/xlink"><g id="tight-bounds" transform="matrix(1,0,0,1,0.2400000000000091,-0.186372882321848)"><svg viewBox="0 0 395.52 143.3727457646437" height="143.3727457646437" width="395.52"><g><svg viewBox="0 0 588.4996090622625 213.32626626384499" height="143.3727457646437" width="395.52"><g transform="matrix(1,0,0,1,192.9796090622625,19.943728644107665)"><svg viewBox="0 0 395.52 173.43880897562966" height="173.43880897562966" width="395.52"><g id="textblocktransform"><svg viewBox="0 0 395.52 173.43880897562966" height="173.43880897562966" width="395.52" id="textblock"><g><svg viewBox="0 0 395.52 118.27393532129356" height="118.27393532129356" width="395.52"><g transform="matrix(1,0,0,1,0,0)"><svg width="395.52" viewBox="0.5 -35.6 119.04 35.6" height="118.27393532129356" data-palette-color="#0074d9"><path d="M24.2 0L17.3 0 17.3-16 10.4-16 10.4 0 3.5 0 3.5-21.4Q3.5-25.65 2.93-27.33 2.35-29 0.5-31.4L0.5-31.4 6.5-35.6Q8.1-34.55 9.25-31.73 10.4-28.9 10.4-24.9L10.4-24.9 10.4-22 17.3-22 17.3-35 24.2-35 24.2 0ZM36.1-28.2L36.1-21.3 45.05-21.3 45.05-15.25 36.1-15.25 36.1-6.05 48.05-6.05 48.05 0 29.2 0 29.2-30.8 36.1-35.6 47.25-35.6 47.25-29.5 37.95-29.5 36.1-28.2ZM56.75-32.35Q60.3-35.6 62.15-35.6 64-35.6 67.55-32.35 71.09-29.1 71.95-27L71.95-27Q72.5-25.55 72.5-20.45L72.5-20.45 72.5 0 65.59 0 65.59-7.5 58.7-7.5 58.7 0 51.8 0 51.8-20.45Q51.8-25.55 52.34-27L52.34-27Q53.2-29.1 56.75-32.35ZM58.7-20.45L58.7-20.45 58.7-13.5 65.59-13.5 65.59-20.45Q65.59-24.55 65.2-25.48 64.8-26.4 63.82-27.43 62.84-28.45 62.15-28.45 61.45-28.45 60.47-27.43 59.5-26.4 59.09-25.48 58.7-24.55 58.7-20.45ZM74.84-35L94.74-35 94.74-29 88.24-29 88.24 0 81.34 0 81.34-29 74.84-29 74.84-35ZM119.54 0L112.64 0 112.64-16 105.74-16 105.74 0 98.84 0 98.84-21.4Q98.84-25.65 98.27-27.33 97.69-29 95.84-31.4L95.84-31.4 101.84-35.6Q103.44-34.55 104.59-31.73 105.74-28.9 105.74-24.9L105.74-24.9 105.74-22 112.64-22 112.64-35 119.54-35 119.54 0Z" opacity="1" transform="matrix(1,0,0,1,0,0)" fill="#0074d9" class="wordmark-text-0" data-fill-palette-color="primary" id="text-0"></path></svg></g></svg></g><g transform="matrix(1,0,0,1,0,146.19557287620327)"><svg viewBox="0 0 180.35711999999998 27.243236099426387" height="27.243236099426387" width="180.35711999999998"><g transform="matrix(1,0,0,1,0,0)"><svg width="180.35711999999998" viewBox="5.76 -41.94 280.89 42.43" height="27.243236099426387" data-palette-color="#ea3a36"><path d="M5.76 0L5.76-37.35 9.91-37.35 9.91-20.48 27.56-20.48 27.56-37.35 31.69-37.35 31.69 0 27.56 0 27.56-16.94 9.91-16.94 9.91 0 5.76 0ZM64.45-5.03L65.65-1.54Q60.59 0.49 54.49 0.49L54.49 0.49Q50.95 0.49 48.48-0.24L48.48-0.24Q44.55-1.37 43.26-4.88L43.26-4.88Q42.06-8.18 42.06-14.65L42.06-14.65 42.06-15.89Q42.06-23.63 45.29-26.76L45.29-26.76Q48.19-29.54 54.98-29.54L54.98-29.54Q61.59-29.54 64.01-26.27L64.01-26.27Q65.18-24.68 65.56-22.42 65.94-20.17 65.94-18.12L65.94-18.12Q65.94-14.92 65.79-13.16L65.79-13.16Q62.35-13.01 59.62-13.01L59.62-13.01Q59.62-13.01 55.69-13.01L55.69-13.01Q49.53-13.01 46.21-13.55L46.21-13.55Q46.21-7.93 47.63-5.71L47.63-5.71Q49.36-3 54.54-3 59.71-3 64.45-5.03L64.45-5.03ZM46.21-16.41L61.81-16.41 61.81-18.75Q61.81-22.58 60.32-24.22L60.32-24.22Q58.66-26.05 54.59-26.05L54.59-26.05Q49.7-26.05 47.92-23.93L47.92-23.93Q46.21-21.9 46.21-16.41L46.21-16.41ZM98.43-19.41L98.43-10.3Q98.43-5.44 98.9-0.2L98.9-0.2 95.28 0.1 94.67-3.3Q91.57-0.81 86.47 0.17L86.47 0.17Q84.81 0.49 83.52 0.49 82.22 0.49 81.23 0.37 80.24 0.24 79.33-0.11 78.41-0.46 77.63-1.1 76.85-1.73 76.26-2.78L76.26-2.78Q75.02-5 75.02-8.12 75.02-11.23 75.47-12.95 75.92-14.67 76.97-15.82L76.97-15.82Q79.05-18.09 83.95-18.09 88.86-18.09 94.43-16.24L94.43-16.24 94.43-19.41Q94.43-24.71 90.06-25.68L90.06-25.68Q88.64-26 86.81-26L86.81-26Q82.64-26 78.14-24.34L78.14-24.34 77.24-27.86Q78.49-28.69 83.59-29.35L83.59-29.35Q85.2-29.54 87.46-29.54 89.72-29.54 91.89-29 94.06-28.47 95.5-27.25L95.5-27.25Q98.43-24.83 98.43-19.41L98.43-19.41ZM94.33-13.18L94.33-13.18Q88.62-14.62 83.78-14.62L83.78-14.62Q80.81-14.62 79.83-12.92L79.83-12.92Q79.17-11.72 79.17-9.38 79.17-7.03 79.43-5.98 79.68-4.93 80.27-4.25L80.27-4.25Q81.42-2.95 84.05-2.95L84.05-2.95Q88.18-2.95 92.23-5.08L92.23-5.08Q93.48-5.71 94.48-6.49L94.48-6.49Q94.33-9.13 94.33-13.18ZM110.42 0L110.37-41.5 114.4-41.85 114.4 0 110.42 0ZM139.08-4.57L140.47-1.39Q136.49 0.49 133.12 0.49L133.12 0.49Q127.02 0.49 126.19-4.74L126.19-4.74Q125.99-5.98 125.99-8.35L125.99-8.35 125.99-25.66 122.48-25.66 122.48-28.66 125.99-29.05 126.63-35.69 130.02-35.69 130.02-29.05 138.49-29.05 138.49-25.66 130.02-25.66 130.02-8.42Q130.02-5.42 130.46-4.59L130.46-4.59Q131.26-3.08 133.68-3.08 136.1-3.08 139.08-4.57L139.08-4.57ZM160.73-25.76L160.73-25.76Q155.87-25.76 151.09-22.95L151.09-22.95 151.09 0 147.03 0 147.03-41.55 150.99-41.94 150.99-26.05Q153.5-28.2 157.53-29.15L157.53-29.15Q159.14-29.54 161.34-29.54 163.54-29.54 165.2-29.04 166.86-28.54 167.83-27.44L167.83-27.44Q169.59-25.46 169.59-20.24L169.59-20.24 169.59 0 165.49 0 165.49-19.51Q165.49-23.02 164.81-24.04 164.12-25.05 163.18-25.4 162.24-25.76 160.73-25.76ZM193.47-3.03L193.69-3.03Q197.67-3.03 201.69-4.57L201.69-4.57 202.77-1.2Q200.91-0.27 198.3 0.11 195.69 0.49 193.69 0.49L193.69 0.49 193.34 0.49Q184.65 0.49 181.7-4.49L181.7-4.49Q179.89-7.52 179.5-12.65L179.5-12.65Q179.33-15.11 179.33-18.04 179.33-20.97 179.49-23.62 179.65-26.27 180.14-28.48 180.62-30.69 181.55-32.42 182.48-34.16 184.04-35.35L184.04-35.35Q187.22-37.84 193.27-37.84L193.27-37.84Q197.18-37.84 199.56-37.34 201.94-36.84 202.77-36.52L202.77-36.52 201.67-32.67Q196.91-34.33 193.53-34.33 190.15-34.33 188.33-33.51 186.51-32.69 185.48-30.81L185.48-30.81Q183.7-27.59 183.7-18.53L183.7-18.53 183.7-16.72Q183.7-9.28 185.63-6.32L185.63-6.32Q187.78-3.03 193.47-3.03L193.47-3.03ZM231.7-19.41L231.7-10.3Q231.7-5.44 232.16-0.2L232.16-0.2 228.55 0.1 227.94-3.3Q224.84-0.81 219.73 0.17L219.73 0.17Q218.07 0.49 216.78 0.49 215.49 0.49 214.5 0.37 213.51 0.24 212.59-0.11 211.68-0.46 210.9-1.1 210.11-1.73 209.53-2.78L209.53-2.78Q208.28-5 208.28-8.12 208.28-11.23 208.73-12.95 209.19-14.67 210.24-15.82L210.24-15.82Q212.31-18.09 217.22-18.09 222.13-18.09 227.69-16.24L227.69-16.24 227.69-19.41Q227.69-24.71 223.32-25.68L223.32-25.68Q221.91-26 220.08-26L220.08-26Q215.9-26 211.41-24.34L211.41-24.34 210.5-27.86Q211.75-28.69 216.85-29.35L216.85-29.35Q218.46-29.54 220.72-29.54 222.98-29.54 225.15-29 227.33-28.47 228.77-27.25L228.77-27.25Q231.7-24.83 231.7-19.41L231.7-19.41ZM227.59-13.18L227.59-13.18Q221.88-14.62 217.05-14.62L217.05-14.62Q214.07-14.62 213.09-12.92L213.09-12.92Q212.43-11.72 212.43-9.38 212.43-7.03 212.69-5.98 212.95-4.93 213.53-4.25L213.53-4.25Q214.68-2.95 217.32-2.95L217.32-2.95Q221.44-2.95 225.5-5.08L225.5-5.08Q226.74-5.71 227.74-6.49L227.74-6.49Q227.59-9.13 227.59-13.18ZM253.18-25.51L253.18-25.51Q250.05-25.51 246.81-22.39L246.81-22.39 246.81 0 242.75 0 242.75-29.05 246.32-29.05 246.71-25.2Q247.86-26.98 249.19-27.98 250.52-28.98 251.37-29.2L251.37-29.2Q252.59-29.54 253.69-29.54 254.79-29.54 256.45-29.1L256.45-29.1 256.08-25.22Q254.84-25.51 253.18-25.51ZM285.16-5.03L286.35-1.54Q281.3 0.49 275.2 0.49L275.2 0.49Q271.66 0.49 269.19-0.24L269.19-0.24Q265.26-1.37 263.97-4.88L263.97-4.88Q262.77-8.18 262.77-14.65L262.77-14.65 262.77-15.89Q262.77-23.63 265.99-26.76L265.99-26.76Q268.9-29.54 275.69-29.54L275.69-29.54Q282.3-29.54 284.72-26.27L284.72-26.27Q285.89-24.68 286.27-22.42 286.65-20.17 286.65-18.12L286.65-18.12Q286.65-14.92 286.5-13.16L286.5-13.16Q283.06-13.01 280.32-13.01L280.32-13.01Q280.32-13.01 276.39-13.01L276.39-13.01Q270.24-13.01 266.92-13.55L266.92-13.55Q266.92-7.93 268.34-5.71L268.34-5.71Q270.07-3 275.25-3 280.42-3 285.16-5.03L285.16-5.03ZM266.92-16.41L282.52-16.41 282.52-18.75Q282.52-22.58 281.03-24.22L281.03-24.22Q279.37-26.05 275.29-26.05L275.29-26.05Q270.41-26.05 268.63-23.93L268.63-23.93Q266.92-21.9 266.92-16.41L266.92-16.41Z" opacity="1" transform="matrix(1,0,0,1,0,0)" fill="#ea3a36" class="slogan-text-1" data-fill-palette-color="secondary" id="text-1"></path></svg></g></svg></g></svg></g></svg></g><g><svg viewBox="0 0 165.05797150735282 213.32626626384499" height="213.32626626384499" width="165.05797150735282"><g><svg xmlns="http://www.w3.org/2000/svg" xmlns:xlink="http://www.w3.org/1999/xlink" version="1.1" x="0" y="0" viewBox="11.452907485383136 0.18319745593316278 77.09324248441663 99.63780254406683" enable-background="new 0 0 100 100" xml:space="preserve" height="213.32626626384499" width="165.05797150735282" class="icon-icon-0" data-fill-palette-color="accent" id="icon-0"><path d="M82.511 27.412c-0.153-0.45-0.335-0.918-0.542-1.396-0.309-1.83-1.747-5.274-1.766-5.313l-0.298-0.659c-0.651-1.429-1.391-3.047-1.525-4.437-0.104-1.073 1.284-6.627 1.951-9.297 1.232-4.926 1.362-5.439-0.14-5.982-0.063-0.023-0.339-0.117-0.695-0.087-0.002 0-0.006-0.001-0.009-0.002-1.432-0.309-2.96 0.686-5.537 2.471-0.451 0.312-1.042 0.721-1.599 1.081 0.194-0.91 0.166-2.092-0.995-3.021-1.473-1.179-3.561 0.025-6.72 1.851-0.885 0.512-2.206 1.277-3.088 1.671-0.698-1.148-1.984-2.393-4.411-1.901-1.373 0.278-2.967 1.482-5.24 3.29-0.594 0.472-1.365 1.083-2.006 1.543-0.01-0.414-0.058-0.866-0.225-1.31-0.799-2.107-2.104-2.776-3.059-2.966-3.087-0.618-6.411 2.896-9.074 5.721-0.167 0.178-0.341 0.361-0.512 0.541-0.771-1.276-1.738-2.592-3.159-2.841-1.37-0.249-7.019 1.107-12.253 5.707-4.985 4.38-10.784 12.835-10.101 28.248 0.189 4.247 2.483 41.865 24.748 55.107 4.921 2.929 10.396 4.39 16.39 4.39 7.176 0 15.095-2.097 23.695-6.287C99.438 82.278 82.694 27.953 82.511 27.412zM74.902 90.58c-14.725 7.176-27.163 7.86-36.969 2.026C17.15 80.245 14.969 44.241 14.789 40.177c-0.458-10.333 2.045-18.458 7.441-24.148 4.628-4.88 9.882-6.251 11.043-6.399 0.393 0.325 1.019 1.403 1.331 1.942 0.274 0.472 0.511 0.881 0.757 1.21 0.526 0.703 1.515 0.868 2.241 0.371 0.604-0.413 1.324-1.176 2.319-2.233 1.294-1.372 4.726-5.016 6.044-4.754 0.19 0.039 0.432 0.387 0.624 0.891 0.027 0.109 0.021 0.439 0.016 0.656-0.017 0.818-0.049 2.342 1.308 3.141 1.58 0.931 3.349-0.477 6.025-2.604 1.178-0.935 3.147-2.5 3.851-2.642 0.6-0.123 0.779-0.16 1.327 1.18 0.203 0.495 0.633 0.86 1.155 0.979 1.377 0.316 3.096-0.622 6.008-2.305 0.714-0.414 1.725-0.997 2.535-1.404-0.262 0.765-0.496 1.825 0.147 2.846 0.317 0.499 0.812 0.84 1.398 0.959 1.408 0.289 2.915-0.695 5.456-2.454 0.459-0.318 1.062-0.735 1.631-1.101-0.099 0.398-0.201 0.809-0.302 1.206-1.284 5.138-2.182 8.893-2.034 10.411 0.077 0.792 0.268 1.578 0.518 2.342-1.675-1.002-3.583-1.524-5.677-1.222-1.18 0.17-2.325 0.668-3.379 1.452-1.541-1.364-3.285-2.314-5.158-2.481-4.594-0.411-10.566-0.412-14.952 1.486-1.987-1.58-4.941-1.796-8.208-0.576-5.852 2.186-9.76 5.959-11.616 11.216-4.686 13.274 5.215 32.351 9.747 40.022-0.164 1.434-0.124 2.876 0.167 4.269 0.791 3.781 4.143 10.188 17.713 10.63 16.722 0.545 22.231-6.685 22.858-11.04 0.339-2.355-0.765-3.736-2.013-4.06-1.087-0.281-4.48-0.328-12.545-0.372-7.308-0.041-19.064-0.107-22.618-0.773 1-3.952 3.772-7.497 6.152-8.631 1.762-0.844 2.623-0.134 3.116 0.473 0.646 0.792 1.375 0.934 1.863 0.939 1.077-0.021 1.734-0.803 2.146-1.342 0.404 0.174 0.913 0.562 1.444 0.966 1.293 0.984 3.066 2.335 5.648 2.366 1.396-0.012 2.551-0.383 3.365-1.188 1.332-1.316 1.442-3.296 1.442-5.379 0-2.181-0.385-4.188-0.757-6.127l-0.197-1.041c-0.765-4.127-1.848-8.546-3.217-13.135-0.281-0.939-0.59-1.899-0.901-2.862-0.438-1.356-0.891-2.758-1.247-4.074-0.231-0.85-0.744-3.052-1.118-4.66-0.191-0.825-0.347-1.49-0.408-1.738-0.221-0.879-1.112-1.414-1.991-1.193-0.88 0.22-1.414 1.112-1.193 1.991 0.06 0.241 0.21 0.885 0.396 1.684 0.381 1.633 0.9 3.869 1.147 4.776 0.377 1.39 0.841 2.83 1.29 4.222 0.304 0.939 0.606 1.877 0.879 2.794 1.338 4.477 2.395 8.78 3.136 12.792l0.201 1.062c0.358 1.872 0.699 3.64 0.699 5.508 0 0.901 0 2.581-0.468 3.044-0.209 0.205-0.678 0.239-1.019 0.239-1.496-0.018-2.566-0.832-3.7-1.694-1.138-0.868-2.422-1.863-4.105-1.72-0.722 0.055-1.21 0.481-1.562 0.894-1.704-1.469-3.945-1.686-6.301-0.563-2.839 1.354-5.578 4.587-7.119 8.388-4.623-8.42-11.58-23.769-7.835-34.374 1.539-4.357 4.702-7.378 9.669-9.233 0.633-0.237 2.413-0.813 3.896-0.457-2.427 2.45-5.893 8.44-5.435 12.451 0.201 1.769 1.147 3.108 2.663 3.77 2.727 1.193 6.862 0.501 8.436-2.391 0.894-1.645 1.177-4.261 0.842-7.779-0.061-0.642-0.354-3.16-1.345-5.357 3.003-1.086 7.366-1.424 12.663-0.952 0.985 0.088 2.072 0.639 3.16 1.577-0.101 0.141-0.199 0.284-0.297 0.43-2.025 3.06-2.879 7.052-2.12 9.932 0.317 1.204 1.155 2.146 2.425 2.726 2.276 1.041 5.57 0.713 7.439-0.207 0.839-0.411 1.736-1.451 1.249-4.067-0.438-2.36-1.95-5.873-4.165-8.749 0.525-0.341 1.066-0.557 1.606-0.634 3.628-0.533 6.886 3.368 8.464 6.87 0.006 0.017 0.014 0.033 0.021 0.05 0.19 0.426 0.356 0.847 0.494 1.253C82.27 36.925 93.027 81.749 74.902 90.58zM66.648 23.53c2.244 3.174 3.165 6.318 3.199 7.445-1.197 0.403-3.087 0.494-4.19-0.011-0.525-0.24-0.593-0.493-0.613-0.576-0.498-1.885 0.133-4.781 1.502-7.002C66.58 23.434 66.615 23.482 66.648 23.53zM46.081 31.805c-0.652 1.199-2.913 1.53-4.238 0.952-0.32-0.14-0.628-0.374-0.715-1.133-0.313-2.747 2.631-7.936 4.467-9.747 0.484 1.192 0.819 2.716 0.944 4.03C46.796 28.601 46.624 30.806 46.081 31.805zM39.57 70.049c3.103 0.547 9.463 0.748 22.979 0.823 4.6 0.025 9.753 0.055 11.355 0.212 0.026 0.468-0.139 1.45-0.95 2.659-1.315 1.952-5.758 6.445-18.579 6.037-8.518-0.276-13.568-3.049-14.608-8.021C39.649 71.195 39.586 70.624 39.57 70.049z" fill="#f27d2c" data-fill-palette-color="accent"></path></svg></g></svg></g></svg></g><defs></defs></svg><rect width="395.52" height="143.3727457646437" fill="none" stroke="none" visibility="hidden"></rect></g></svg></g></svg>